<svg xmlns="http://www.w3.org/2000/svg" viewBox="0 0 863.53 1039.74"><defs><style>.cls-1,.cls-4{fill:none;}.cls-1,.cls-3{stroke:#bc8057;}.cls-1,.cls-3,.cls-4{stroke-miterlimit:10;stroke-width:4px;}.cls-2,.cls-3{fill:#bc8057;}.cls-4{stroke:#000;}.cls-5{fill:#1fc963;}.cls-6{fill:#0d31c9;}</style></defs><title>krishna</title><g id="mor_pankh_upper"><path class="cls-1" d="M235.32,1047.62s4-66,0-105" transform="translate(-101.68 -20.38)"/><path class="cls-1" d="M297.32,913.62s-23,82-73,18c0,0-21-49-25-85" transform="translate(-101.68 -20.38)"/><path class="cls-1" d="M297.32,935.62s26,30,69-9c0,0,53-69,57-89" transform="translate(-101.68 -20.38)"/><path class="cls-1" d="M361.32,930.62s-8,32,27,117" transform="translate(-101.68 -20.38)"/><path class="cls-1" d="M292.32,888.62s-3-25,23-51" transform="translate(-101.68 -20.38)"/><path class="cls-1" d="M374.32,867.62s-8-3,0-21" transform="translate(-101.68 -20.38)"/><path class="cls-1" d="M180.32,795.62s-21-33-21-64,8-76,21-56,11,48-5,52" transform="translate(-101.68 -20.38)"/><path class="cls-1" d="M221.32,785.62s-30.47-41.39-34-73" transform="translate(-101.68 -20.38)"/><path class="cls-1" d="M178.32,759.62s12.54-6.5,17.77-16.75" transform="translate(-101.68 -20.38)"/><path class="cls-1" d="M278.32,712.62s-23,6,6,21" transform="translate(-101.68 -20.38)"/><path class="cls-1" d="M319.32,787.62s-16,4-4,24" transform="translate(-101.68 -20.38)"/><path class="cls-1" d="M254.32,730.62s-2,14-20,16" transform="translate(-101.68 -20.38)"/><path class="cls-1" d="M245.69,742.87s.95,13.31,6.79,32" transform="translate(-101.68 -20.38)"/><path class="cls-1" d="M306.73,751.24s17.59-23.62,36.59-12.62,23,57,23,57-4,18-27,0c0,0-10-7-16-41" transform="translate(-101.68 -20.38)"/><path class="cls-1" d="M363.32,781.62s-23.65-2.5-11.33,21.25" transform="translate(-101.68 -20.38)"/><path class="cls-1" d="M204.32,787.62s12.85.8,12.43-8.6l-.43-51.4,32-26s15-7,35,18-48,18-35-2" transform="translate(-101.68 -20.38)"/><path class="cls-1" d="M234.32,781.62s16,1,17-3c0,0,10.24-35.49,22.62-41.24s24.38-4.76,27.38,2.24,7,11,22,60c0,0,1,23-20,5s-29-46-23-53" transform="translate(-101.68 -20.38)"/><path class="cls-1" d="M264.32,781.62s3,9,20,3" transform="translate(-101.68 -20.38)"/><path class="cls-1" d="M236.32,998.62s-55,9,0,28,140-11,140-11,35-23-8-28" transform="translate(-101.68 -20.38)"/><path class="cls-1" d="M592.32,1054.62l-56-99c-33,35-81-110-81-110l-43-11c-43,22-49,3-49,3s-7-4,46-35c0,0,47-8,74,9,0,0-35-2-24,26" transform="translate(-101.68 -20.38)"/><path class="cls-1" d="M696.32,980.62s-76-74-80-92-43-145-62-158c0,0-8-5-18,8" transform="translate(-101.68 -20.38)"/><path class="cls-1" d="M478.32,722.62s6-14,17-15,59,23,59,23" transform="translate(-101.68 -20.38)"/><path class="cls-1" d="M423.32,746.62s16-29,31-24,74,24,74,24-24,4-19,19" transform="translate(-101.68 -20.38)"/><path class="cls-1" d="M389.32,785.62s16-35,49-43,66,32,66,32-21-3-20,21" transform="translate(-101.68 -20.38)"/><path class="cls-1" d="M431.32,765.62s29,30,47,38" transform="translate(-101.68 -20.38)"/><path class="cls-1" d="M592.32,901.62s9-14,24-13" transform="translate(-101.68 -20.38)"/><path class="cls-1" d="M431.32,755.62s-2-7,7-13" transform="translate(-101.68 -20.38)"/><path class="cls-1" d="M374.43,825s11.89,3.6-5.11,18.6" transform="translate(-101.68 -20.38)"/><path class="cls-1" d="M554.32,989.12s-38.17,26.8,12.91,21.15,109.95-39.79,109.52-49.22c0,0,14.93-21.43-17.75-18.43" transform="translate(-101.68 -20.38)"/><path class="cls-1" d="M794.32,910.62s-40,57-43,100" transform="translate(-101.68 -20.38)"/><path class="cls-1" d="M888.32,837.62s109,49,64,222" transform="translate(-101.68 -20.38)"/><path class="cls-1" d="M684.32,826.62s-9.75,39-56.88,75" transform="translate(-101.68 -20.38)"/><circle class="cls-1" cx="604.14" cy="816.73" r="11.5"/><circle class="cls-1" cx="592.14" cy="842.73" r="13.5"/><circle class="cls-1" cx="579.64" cy="869.23" r="12"/><circle class="cls-1" cx="561.64" cy="889.23" r="13"/><path class="cls-1" d="M637.11,918.46s24.19-7.79,17.7,19.68" transform="translate(-101.68 -20.38)"/><path class="cls-1" d="M725.32,812.62c.52-1.81-8.52,27.13-23.5,2" transform="translate(-101.68 -20.38)"/><path class="cls-1" d="M594.26,817.24l346.06-13.62s22-24,0-45l-362.69,14" transform="translate(-101.68 -20.38)"/><path class="cls-1" d="M446.82,784.15l-76.5,3.47s15,30,30-1" transform="translate(-101.68 -20.38)"/><path class="cls-1" d="M287,792.21,112.32,802.62s-24,33,8,46l240-18" transform="translate(-101.68 -20.38)"/><path class="cls-1" d="M925.77,759.62s8.44,23.5,0,43.25" transform="translate(-101.68 -20.38)"/><path class="cls-1" d="M112.32,802.62s22,19,8,46" transform="translate(-101.68 -20.38)"/><path class="cls-1" d="M196.09,800.74s16.16,23.88,30.7-1.12" transform="translate(-101.68 -20.38)"/><path class="cls-1" d="M278.82,792.69s4.5,18.93,24.5,12.93" transform="translate(-101.68 -20.38)"/><path class="cls-1" d="M592.32,772.57s22,25.51,30-1.72" transform="translate(-101.68 -20.38)"/><path class="cls-1" d="M822.24,763.16s29.74,21.54,33.91,0" transform="translate(-101.68 -20.38)"/><path class="cls-1" d="M702,812c15.66-27.59-4.21-44.08-4.21-44.08" transform="translate(-101.68 -20.38)"/><path class="cls-1" d="M706.32,749.62l11,17s17.3,14.81,4.15,44.4" transform="translate(-101.68 -20.38)"/><path class="cls-1" d="M717.32,730.62s4,29,26,35" transform="translate(-101.68 -20.38)"/><path class="cls-1" d="M726.4,714s-1.08,30.63,38.92,41.63" transform="translate(-101.68 -20.38)"/><path class="cls-1" d="M735.86,696.72s-.54,33.9,32.46,44.9,26,21.54,26,21.54" transform="translate(-101.68 -20.38)"/><path class="cls-1" d="M760.32,748.62s16-3,23,9" transform="translate(-101.68 -20.38)"/><path class="cls-1" d="M746.32,679.62s4,26,26,37,35.83,46.54,35.83,46.54" transform="translate(-101.68 -20.38)"/><path class="cls-1" d="M805.32,757.62s-3-39-28-50-31-28-31-28" transform="translate(-101.68 -20.38)"/><path class="cls-1" d="M531.32,680.62s55,69,153,66c0,0,25-2,33-16s23-44,29-50,40-68,32-119,5-58,7-71-8-46-10-75-62-30-74-15c0,0-61-29-133,8" transform="translate(-101.68 -20.38)"/><path class="cls-1" d="M690.32,423.62s-1,27,4,54c0,0,11,15,19,0v-54" transform="translate(-101.68 -20.38)"/><path class="cls-2" d="M671.32,501.62s-41-23-85-7c0,0-16,3,3-8s81-8,87,7S671.32,501.62,671.32,501.62Z" transform="translate(-101.68 -20.38)"/><path class="cls-2" d="M723.32,496.62s-7,15,6,7,35-26,55-12l1-7.34s-8-8.66-28-7.66S723.32,496.62,723.32,496.62Z" transform="translate(-101.68 -20.38)"/><path class="cls-1" d="M655.32,521.62s-31-26-63,0" transform="translate(-101.68 -20.38)"/><path class="cls-2" d="M588.32,528.62s35-25,65-3c0,0,5,3,4,8h-6s-7-26-56-2c0,0,6,8,10,8C605.32,539.62,587.32,539.62,588.32,528.62Z" transform="translate(-101.68 -20.38)"/><path class="cls-1" d="M615.32,543.62s25,8,36-10" transform="translate(-101.68 -20.38)"/><path class="cls-1" d="M613.59,524.25s17.73,25.37,28.73,2.37" transform="translate(-101.68 -20.38)"/><circle class="cls-3" cx="528.64" cy="504.23" r="3"/><circle class="cls-3" cx="641.64" cy="501.23" r="3"/><path class="cls-1" d="M718.32,505.62s-12,37,16,91c0,0,6,14-9,22" transform="translate(-101.68 -20.38)"/><path class="cls-1" d="M719.32,616.62s7.73-14.07,13.86-5" transform="translate(-101.68 -20.38)"/><path class="cls-1" d="M683.32,612.62s11-1,18,4" transform="translate(-101.68 -20.38)"/><path class="cls-1" d="M678.32,594.62s-14,12,0,24" transform="translate(-101.68 -20.38)"/><path class="cls-1" d="M701.32,627.62s-4,2-2,12" transform="translate(-101.68 -20.38)"/><line class="cls-1" x1="608.64" y1="607.23" x2="608.64" y2="613.23"/><path class="cls-1" d="M713.32,639.62s-8,4-10,0" transform="translate(-101.68 -20.38)"/><path class="cls-1" d="M737.32,649.62s-3,10-9,1-15-5-18-3-14,4-18,0-14,0-14,0c-32,14-31,2-31,2" transform="translate(-101.68 -20.38)"/><path class="cls-1" d="M728.32,654.62a84,84,0,0,0-18,4c-8,3-10,2-17,0s-23,0-36-1c0,0,15,23,33,22s17,3,25-5,5.8-4.43,14.9-20.22" transform="translate(-101.68 -20.38)"/><path class="cls-1" d="M683.32,690.62" transform="translate(-101.68 -20.38)"/><path class="cls-1" d="M683.32,690.62s7-7,30-3" transform="translate(-101.68 -20.38)"/><path class="cls-1" d="M716.39,515.84s29.93-20.22,48.93,4.78" transform="translate(-101.68 -20.38)"/><path class="cls-2" d="M720.32,521.62s-7,4,1,3,22-16,47,6C768.32,530.62,755.32,500.62,720.32,521.62Z" transform="translate(-101.68 -20.38)"/><path class="cls-1" d="M729.32,520.62s-1,14,12,13,14-14,14-14" transform="translate(-101.68 -20.38)"/><path class="cls-1" d="M716.39,533.62s14.93,15,38.93,6" transform="translate(-101.68 -20.38)"/><path class="cls-1" d="M455.32,542.62s-13,45,27,76c0,0-12,18,6,36,0,0,7-2,9,0,0,0-14-14-2-34,0,0-10-6-12-1" transform="translate(-101.68 -20.38)"/><circle class="cls-1" cx="392.64" cy="643.23" r="9"/><path class="cls-1" d="M512.32,606.62s7.43,36-20.28,21" transform="translate(-101.68 -20.38)"/><path class="cls-1" d="M522.32,666.62s-22.38-24.73-19.69-35.37" transform="translate(-101.68 -20.38)"/><path class="cls-1" d="M508.32,648.62s2,11-11,6" transform="translate(-101.68 -20.38)"/><path class="cls-1" d="M470.32,545.62s-5,9-3,25" transform="translate(-101.68 -20.38)"/><path class="cls-1" d="M485.32,551.62s-11,12-10,24,19,13,19,13,7,3,3-8c0,0-6-6-5-13S496.32,548.62,485.32,551.62Z" transform="translate(-101.68 -20.38)"/><path class="cls-1" d="M599.94,396.07s-13.62-43.45,22.38-40.45c0,0-22.45-26.13,35-44,45-14,37-24,37-24s1,20,23,26,52,21,41,41c0,0,43.11,1.66,12.56,49.83" transform="translate(-101.68 -20.38)"/><path class="cls-4" d="M976.32,462.62" transform="translate(-101.68 -20.38)"/><path class="cls-1" d="M486.32,420.62s73,18,79-16c0,0,13-14,11-23s-5-33,28-42c0,0,3-27,33-34s54-27,58-37c0,0,11,28,44,35s38,35,34,40c0,0,48.81,18.69,2.4,76.84,0,0,30.35,23.16,8,49.16" transform="translate(-101.68 -20.38)"/><circle class="cls-1" cx="540.14" cy="341.73" r="7.5"/><circle class="cls-1" cx="637.14" cy="343.73" r="6.5"/><circle class="cls-2" cx="589.89" cy="329.98" r="10.5"/><circle class="cls-1" cx="589.89" cy="329.98" r="18"/><circle class="cls-2" cx="588.64" cy="306.23" r="4"/><circle class="cls-2" cx="599" cy="308.01" r="4"/><circle class="cls-2" cx="607.58" cy="314.08" r="4"/><circle class="cls-2" cx="612.7" cy="323.25" r="4"/><circle class="cls-2" cx="613.37" cy="333.74" r="4"/><circle class="cls-2" cx="609.46" cy="343.5" r="4"/><circle class="cls-2" cx="601.73" cy="350.61" r="4"/><circle class="cls-2" cx="591.68" cy="353.7" r="4"/><circle class="cls-2" cx="581.29" cy="352.15" r="4"/><circle class="cls-2" cx="572.57" cy="346.28" r="4"/><circle class="cls-2" cx="567.24" cy="337.23" r="4"/><circle class="cls-2" cx="566.33" cy="326.76" r="4"/><circle class="cls-2" cx="570.02" cy="316.92" r="4"/><circle class="cls-2" cx="577.59" cy="309.63" r="4"/><path class="cls-1" d="M494.32,444.62s65,13,74-36" transform="translate(-101.68 -20.38)"/><path class="cls-1" d="M523.32,469.62s50.45-17.28,42.73-52.64" transform="translate(-101.68 -20.38)"/><path class="cls-1" d="M527.32,453.62s-9,27-70,9" transform="translate(-101.68 -20.38)"/><path class="cls-1" d="M404.32,557.62s-31-22-4-54" transform="translate(-101.68 -20.38)"/><path class="cls-1" d="M408.32,533.62s-12-41,23-42" transform="translate(-101.68 -20.38)"/><path class="cls-1" d="M419.32,518.62s8-18,41-22,32-20,32-20" transform="translate(-101.68 -20.38)"/><path class="cls-1" d="M516.32,479.62s-14,26-85,28.49" transform="translate(-101.68 -20.38)"/><path class="cls-1" d="M446.32,515.62s-50,51-27,115" transform="translate(-101.68 -20.38)"/><path class="cls-1" d="M372.32,670.62s40-2,41-31" transform="translate(-101.68 -20.38)"/><path class="cls-1" d="M442.32,584.62s26,50-29,82" transform="translate(-101.68 -20.38)"/><path class="cls-1" d="M446.32,663.62s21.82-17,15.41-69" transform="translate(-101.68 -20.38)"/><path class="cls-1" d="M429.32,579.62s-2-47,46-46,68-71,68-71" transform="translate(-101.68 -20.38)"/><path class="cls-1" d="M535,484.28c-8.35,21.67-61.64,36.34-61.64,36.34" transform="translate(-101.68 -20.38)"/><path class="cls-1" d="M558.53,446.18s1.22,38.93-28.49,47.69" transform="translate(-101.68 -20.38)"/><path class="cls-1" d="M455.32,542.62s44,3,48-9c0,0-7,26,13,39,0,0-16-22-3-42,0,0,33.53-10.74,31.77-39.37" transform="translate(-101.68 -20.38)"/><path class="cls-1" d="M494.32,672.62s-3.83,34.2-7.41,38.6" transform="translate(-101.68 -20.38)"/><path class="cls-1" d="M494.32,707.62s11-9.56-2-19.78" transform="translate(-101.68 -20.38)"/><path class="cls-1" d="M675.21,767.94s-1.89-15.32,1.11-21.32" transform="translate(-101.68 -20.38)"/><path class="cls-1" d="M696.32,746.62s-3,11.23,7,21.11" transform="translate(-101.68 -20.38)"/><path class="cls-1" d="M783.73,496.38s30.59-21.76,20.59-56.76-22.5-27.35-22.5-27.35" transform="translate(-101.68 -20.38)"/><path class="cls-1" d="M790.6,397s24.74,12.71,15.73,49.15" transform="translate(-101.68 -20.38)"/><path class="cls-1" d="M775.9,526.64s23.92-8.69,19.67-42.36" transform="translate(-101.68 -20.38)"/><path class="cls-1" d="M783.68,350.12s7.64-45.5-42.36-64.5" transform="translate(-101.68 -20.38)"/><path class="cls-1" d="M748.29,305.15s-12-53.53-60-41.53" transform="translate(-101.68 -20.38)"/><path class="cls-1" d="M690.32,271.62s-37-25-62-16" transform="translate(-101.68 -20.38)"/><path class="cls-1" d="M581.32,245.62c-3-3-61.2,21.12-61.2,21.12" transform="translate(-101.68 -20.38)"/><path class="cls-1" d="M541.32,266.62s18,7,27,2" transform="translate(-101.68 -20.38)"/><path class="cls-4" d="M591.32,266.62" transform="translate(-101.68 -20.38)"/><path class="cls-1" d="M628.32,245.62s-44,3-85-14-53.53,17.15-44.77,28.57" transform="translate(-101.68 -20.38)"/><path class="cls-1" d="M497.32,235.62s-15-44,26-38,88.54,19.48,90.27,47.74" transform="translate(-101.68 -20.38)"/><path class="cls-1" d="M516.32,196.62s34-32,88,0" transform="translate(-101.68 -20.38)"/><path class="cls-1" d="M547.32,181.62s26-29,50-4" transform="translate(-101.68 -20.38)"/><path class="cls-1" d="M408.44,759.62s-63.12,4-64.12-47" transform="translate(-101.68 -20.38)"/><path class="cls-1" d="M404.32,712.62s-54,42-68-33" transform="translate(-101.68 -20.38)"/><path class="cls-1" d="M370.32,707.62s-34-21-26-44c0,0-10-27,22-24s51-33,23-66-10-80,5-94,37-8,20-50,16-71,28-76" transform="translate(-101.68 -20.38)"/><path class="cls-1" d="M487.32,308.62s10,18-34,33-21.89,19.25-21.89,19.25" transform="translate(-101.68 -20.38)"/><path class="cls-1" d="M435.32,348.62s12-26,32-33c0,0,11-68,71-35" transform="translate(-101.68 -20.38)"/><path class="cls-1" d="M475.32,287.62s-14-49,56-16" transform="translate(-101.68 -20.38)"/><path class="cls-1" d="M560.32,281.62s11-20,20-13,42-8,42-8" transform="translate(-101.68 -20.38)"/><path class="cls-1" d="M571.32,328.62s37-39,64-22" transform="translate(-101.68 -20.38)"/><path class="cls-1" d="M664.92,295.07s-63.6-36.45-121.6,21.55" transform="translate(-101.68 -20.38)"/><path class="cls-1" d="M615.32,273.62s54-19.14,71,6.43" transform="translate(-101.68 -20.38)"/><path class="cls-1" d="M508.32,316.62s1,20-16,21-12,8-12,8" transform="translate(-101.68 -20.38)"/><path class="cls-1" d="M522.32,329.62s7,26-14,31-48,10-48,10" transform="translate(-101.68 -20.38)"/><path class="cls-1" d="M460.32,412.62s20-35,53-35,42-34,30-46" transform="translate(-101.68 -20.38)"/><path class="cls-1" d="M538.32,385.62s38-3,37-15" transform="translate(-101.68 -20.38)"/><path class="cls-2" d="M641.82,141.12s10-60,47-13C688.82,128.12,653.82,62.12,641.82,141.12Z" transform="translate(-101.68 -20.38)"/><path class="cls-2" d="M670.82,174.12s-30,2-28-31,48-36,49,0S670.82,174.12,670.82,174.12Z" transform="translate(-101.68 -20.38)"/><path class="cls-5" d="M665.82,168.12s-11,2-15-9,1-25,9-30,44,4,19,34Z" transform="translate(-101.68 -20.38)"/><path class="cls-6" d="M667.82,163.12s-12-1-8-12,8-11,17-4S673.82,166.12,667.82,163.12Z" transform="translate(-101.68 -20.38)"/><path class="cls-2" d="M679.82,267.12l10,2s2-35,34-48,33-30,33-34-9,18-21,19-43,9-50,42c0,0,0-16,6-23s19-16,49-27c0,0,20-7,16-44,0,0-3-4-3,3s-2,37-31,43c0,0-21,3-26,14l12-12s53-8,39-64c0,0-4-1-3,12s-5,33-18,36-25,17-27,18,45-28,42-69c0,0-2-4-3,2s-17,52-39,59c0,0,21-8,30-38,0,0-29,28-38,32s18-19,35-36c0,0,6-5,7-15s-3-12,3-22c0,0,0-5-5,0s-10,15-9,20-15,25-17,23,5-15,12-28c0,0,7-14,9-16s0-5-4-1,6-5,4-15-2,10-10,13,7-4,6-17-10,18-12,12,8-9,5-22-4,18-9,14,6-11-3-26,2,21-4,32,2-10,0-19-2,12-5,14-5,12-5,12,11,10,13,24-17,38-20,38,5-11-13-17c0,0-11,14,2,18,0,0,7,11,6,17,0,0-12-9-27-11s-26-15-27-17-9,3,17,17,25,1,37,21c0,0-67-26-76-70,0,0-9,19,17,45,0,0,19,16,30,19s31,11,29,24c0,0-8-11-44-27,0,0-20-12-23-18s-5,6,17,21,19,15,26,19-43-6-52-58c0,0-7,1,3,28,0,0,6,12,25,25s40,9,44,32c0,0-8-13-19-16s-41-15-44-23-6,7,8,17S679.82,252.12,679.82,267.12Z" transform="translate(-101.68 -20.38)"/><path class="cls-2" d="M678.32,187.62s-10.5-5.5-26.5-7.5-26-18-27-21-26-15-26-25,3,6,13,10c0,0-14-15-11-35,0,0,1-7,4,7,0,0-2-19,2-28s-8,30,18,55c0,0,5-2,5-6s6-33,27-52c0,0,5-7-2-22s11,11,11,22,18,9,24,28l9,2,6,11v23l-19,27h-5s21-19,19-31-6-25-29-45-45,48-32,63,19,13,33,14l10,3Z" transform="translate(-101.68 -20.38)"/><path class="cls-2" d="M628.82,143.12s-30-26-12-64,13-43,13-47,0,2,7,16,15,17,4,53c0,0,5-16-1-28,0,0,1,15-3,22s-4.07,21.84-2,26.92c0,0-6-.92-5-28.92s-13,1,0,27-12-8-11-18-6-9,0,15,13,19,13,19Z" transform="translate(-101.68 -20.38)"/><path class="cls-2" d="M650.32,96.62s-4-8,0-16-6-24-11-31,2.5-2.5,8.5,4.5,6,9,7,19C654.82,73.12,656.82,92.12,650.32,96.62Z" transform="translate(-101.68 -20.38)"/><path class="cls-2" d="M667.82,87.12s2-12-19-38-9-42,4-14S672.82,75.12,667.82,87.12Z" transform="translate(-101.68 -20.38)"/><path class="cls-2" d="M672.82,97.12s2-23,0-32-20-23-18-33,3,6,19,10,27,33,22,62-3-22-9-38c0,0-4,23-2,42L681,99.89s1.85-25.77-.15-31.77-3,9-3,32Z" transform="translate(-101.68 -20.38)"/></g></svg>